<svg width="96" height="96" viewBox="0 0 96 96" fill="none" xmlns="http://www.w3.org/2000/svg">
<path d="M0 32C0 14.3269 14.3269 0 32 0H64C81.6731 0 96 14.3269 96 32V64C96 81.6731 81.6731 96 64 96H32C14.3269 96 0 81.6731 0 64V32Z" fill="#FFF6DE"/>
<path d="M53.51 26.9701C32.924 28.1021 24.148 47.8061 24.064 48.0001C24.148 48.1941 32.872 68.0521 53.512 69.0301C53.764 68.6821 60.002 59.9541 60.002 48.0001C60.002 36.0461 53.762 27.3181 53.51 26.9701ZM52.512 66.9641C35.704 65.6921 27.574 50.6641 26.26 48.0001C27.572 45.3361 35.702 30.3081 52.512 29.0361C53.026 29.8361 54.126 31.6741 55.208 34.2921C48.802 35.6001 44 41.3121 44 48.0001C44 54.6881 48.804 60.4001 55.208 61.7081C54.128 64.3261 53.028 66.1641 52.512 66.9641ZM55.924 59.8201C50.274 58.8301 45.998 53.8461 45.998 48.0001C45.998 42.1541 50.272 37.1701 55.924 36.1801C56.532 37.9081 57.082 39.8801 57.466 42.0541C54.41 42.3281 52 44.8741 52 48.0001C52 51.1261 54.41 53.6721 57.466 53.9461C57.084 56.1201 56.534 58.0921 55.924 59.8201ZM53.998 48.0001C53.998 45.8781 55.664 44.1521 57.754 44.0241C57.904 45.2981 57.998 46.6221 57.998 48.0001C57.998 49.3781 57.906 50.7021 57.754 51.9761C55.664 51.8481 53.998 50.1221 53.998 48.0001ZM59.134 25.6841L57.852 27.0781C57.36 26.4161 64 35.5341 64 48.0001C64 60.4661 57.67 69.1121 57.612 69.1901L59.328 70.1821C59.824 69.8401 72 61.3141 72 48.0001C72 34.6861 59.63 26.0261 59.134 25.6841ZM62.478 64.8401C64.146 61.1441 66 55.3801 66 48.0001C66 40.6201 64.178 34.9041 62.532 31.2161C65.806 34.6441 70 40.4981 70 48.0001C70 55.5421 65.76 61.4201 62.478 64.8401Z" fill="#B98400"/>
</svg>
