<svg width="96" height="96" viewBox="0 0 96 96" fill="none" xmlns="http://www.w3.org/2000/svg">
<path d="M0 32C0 14.3269 14.3269 0 32 0H64C81.6731 0 96 14.3269 96 32V64C96 81.6731 81.6731 96 64 96H32C14.3269 96 0 81.6731 0 64V32Z" fill="#FFF6DE"/>
<path d="M59.5 26C54.492 26 49.946 29.702 48 34.708C46.054 29.7 41.508 26 36.5 26C29.608 26 24 31.608 24 38.5C24 52.02 43.508 66.64 47.418 69.432L48 69.848L48.582 69.432C52.494 66.64 72 52.018 72 38.5C72 31.608 66.392 26 59.5 26ZM48 67.386C37.718 59.916 26 48.044 26 38.5C26 32.71 30.71 28 36.5 28C41.996 28 47 33.72 47 40H49C49 33.72 54.004 28 59.5 28C65.29 28 70 32.71 70 38.5C70 48.044 58.282 59.916 48 67.386Z" fill="#B98400"/>
</svg>
